<?xml version="1.0" encoding="UTF-8" standalone="no"?>
<!DOCTYPE svg PUBLIC "-//W3C//DTD SVG 1.1//EN" "http://www.w3.org/Graphics/SVG/1.1/DTD/svg11.dtd">
<svg width="100%" height="100%" viewBox="0 0 24 24" version="1.1" xmlns="http://www.w3.org/2000/svg" xmlns:xlink="http://www.w3.org/1999/xlink" xml:space="preserve" xmlns:serif="http://www.serif.com/" style="fill-rule:evenodd;clip-rule:evenodd;stroke-linejoin:round;stroke-miterlimit:2;">
    <g transform="matrix(0.916667,0,0,0.916667,1,0.999997)">
        <path d="M20.317,4.37C18.761,3.656 17.119,3.146 15.432,2.855C15.401,2.849 15.369,2.864 15.353,2.892C15.142,3.267 14.909,3.757 14.745,4.141C12.9,3.865 11.065,3.865 9.258,4.141C9.095,3.748 8.852,3.267 8.641,2.892C8.625,2.864 8.593,2.85 8.562,2.855C6.875,3.146 5.233,3.655 3.677,4.37C3.664,4.375 3.652,4.385 3.645,4.397C0.533,9.046 -0.319,13.58 0.099,18.058C0.102,18.08 0.113,18.1 0.13,18.114C2.183,19.622 4.172,20.537 6.123,21.143C6.154,21.153 6.188,21.142 6.208,21.116C6.669,20.485 7.081,19.821 7.433,19.122C7.439,19.111 7.442,19.099 7.442,19.087C7.442,19.055 7.422,19.027 7.392,19.016C6.739,18.768 6.118,18.466 5.52,18.124C5.496,18.11 5.482,18.084 5.482,18.057C5.482,18.033 5.493,18.01 5.512,17.996C5.638,17.902 5.764,17.804 5.884,17.704C5.906,17.686 5.936,17.682 5.962,17.694C9.889,19.487 14.142,19.487 18.023,17.694C18.049,17.682 18.079,17.685 18.101,17.703C18.222,17.802 18.347,17.902 18.474,17.996C18.494,18.01 18.505,18.033 18.505,18.057C18.505,18.084 18.491,18.109 18.468,18.123C17.869,18.473 17.243,18.771 16.595,19.015C16.565,19.026 16.545,19.055 16.545,19.086C16.545,19.099 16.548,19.111 16.554,19.122C16.914,19.82 17.326,20.484 17.779,21.115C17.798,21.141 17.832,21.153 17.863,21.143C19.824,20.537 21.813,19.621 23.865,18.114C23.883,18.101 23.895,18.081 23.897,18.059C24.397,12.882 23.059,8.385 20.348,4.398C20.342,4.385 20.33,4.375 20.317,4.37L20.317,4.37ZM8.02,15.331C6.837,15.331 5.863,14.246 5.863,12.912C5.863,11.579 6.819,10.493 8.02,10.493C9.231,10.493 10.196,11.589 10.177,12.912C10.177,14.246 9.221,15.331 8.02,15.331ZM15.995,15.331C14.812,15.331 13.838,14.246 13.838,12.912C13.838,11.579 14.793,10.493 15.995,10.493C17.206,10.493 18.171,11.589 18.152,12.912C18.152,14.246 17.206,15.331 15.995,15.331Z" style="fill-rule:nonzero;"/>
        <path d="M20.772,3.379L20.772,3.378L20.768,3.376L20.772,3.379L20.772,3.379C21.135,3.545 21.371,3.892 21.404,4.277C21.361,3.811 20.959,4.367 20.656,4.864L20.72,4.962L20.791,5.074C21.085,4.821 21.406,4.511 21.408,4.371C21.408,4.44 21.401,4.51 21.387,4.58C21.33,4.875 21.156,5.123 20.919,5.279C23.244,9.045 24.361,13.26 23.897,18.059C23.895,18.081 23.883,18.101 23.865,18.114C21.813,19.621 19.824,20.537 17.863,21.143C17.832,21.153 17.798,21.141 17.779,21.115C17.326,20.484 16.914,19.82 16.554,19.122C16.548,19.111 16.545,19.099 16.545,19.086C16.545,19.055 16.565,19.026 16.595,19.015C17.243,18.771 17.869,18.473 18.468,18.123C18.491,18.109 18.505,18.084 18.505,18.057C18.505,18.033 18.494,18.01 18.474,17.996C18.347,17.902 18.222,17.802 18.101,17.703C18.079,17.685 18.049,17.682 18.023,17.694C14.142,19.487 9.889,19.487 5.962,17.694C5.936,17.682 5.906,17.686 5.884,17.704C5.764,17.804 5.638,17.902 5.512,17.996C5.493,18.01 5.482,18.033 5.482,18.057C5.482,18.084 5.496,18.11 5.52,18.124C6.118,18.466 6.739,18.768 7.392,19.016C7.422,19.027 7.442,19.055 7.442,19.087C7.442,19.099 7.439,19.111 7.433,19.122C7.081,19.821 6.669,20.485 6.208,21.116C6.188,21.142 6.154,21.153 6.123,21.143C4.172,20.537 2.183,19.622 0.13,18.114C0.113,18.1 0.102,18.08 0.099,18.058C-0.319,13.58 0.533,9.046 3.645,4.397C3.652,4.385 3.664,4.375 3.677,4.37C5.233,3.655 6.875,3.146 8.562,2.855C8.593,2.85 8.625,2.864 8.641,2.892C8.853,3.267 9.095,3.748 9.258,4.141C11.065,3.865 12.9,3.865 14.745,4.141C14.909,3.757 15.142,3.267 15.353,2.892C15.369,2.864 15.401,2.849 15.432,2.855C17.119,3.146 18.761,3.656 20.317,4.37L20.317,4.37C20.33,4.375 20.342,4.385 20.348,4.398C20.399,4.473 20.45,4.548 20.5,4.624L20.772,3.379L20.762,3.374C19.123,2.623 17.394,2.087 15.618,1.78C15.139,1.69 14.64,1.926 14.398,2.365C14.3,2.539 14.192,2.747 14.089,2.957C12.687,2.805 11.291,2.805 9.91,2.956L9.581,2.339C9.338,1.925 8.864,1.702 8.39,1.777C8.386,1.778 8.381,1.779 8.377,1.78C6.599,2.086 4.868,2.623 3.228,3.375C3.028,3.466 2.857,3.611 2.736,3.794C-0.535,8.682 -1.427,13.451 -0.987,18.159C-0.986,18.164 -0.986,18.17 -0.985,18.175C-0.951,18.49 -0.791,18.778 -0.541,18.974C-0.533,18.98 -0.524,18.987 -0.515,18.993C1.648,20.582 3.743,21.546 5.8,22.185C5.803,22.186 5.807,22.187 5.811,22.189C6.278,22.328 6.784,22.162 7.078,21.774C7.081,21.769 7.084,21.765 7.088,21.76C7.568,21.104 7.998,20.413 8.37,19.687C10.771,20.279 13.231,20.28 15.621,19.691C15.997,20.411 16.424,21.099 16.893,21.751C17.181,22.156 17.704,22.333 18.183,22.186C18.184,22.186 18.185,22.186 18.186,22.185C20.252,21.546 22.348,20.582 24.511,18.993C24.779,18.797 24.953,18.492 24.983,18.158C25.508,12.724 24.108,7.997 21.265,3.806C21.157,3.629 20.982,3.474 20.772,3.379ZM8.02,15.331C6.838,15.331 5.863,14.246 5.863,12.912C5.863,11.579 6.819,10.493 8.02,10.493C9.231,10.493 10.196,11.589 10.177,12.912C10.177,14.246 9.221,15.331 8.02,15.331ZM15.995,15.331C14.812,15.331 13.838,14.246 13.838,12.912C13.838,11.579 14.793,10.493 15.995,10.493C17.206,10.493 18.171,11.589 18.152,12.912C18.152,14.246 17.206,15.331 15.995,15.331ZM8.02,14.24C7.399,14.24 6.954,13.613 6.954,12.912C6.954,12.212 7.389,11.584 8.02,11.584C8.652,11.584 9.096,12.206 9.086,12.897C9.086,12.902 9.086,12.907 9.086,12.912C9.086,13.613 8.651,14.24 8.02,14.24ZM15.995,14.24C15.373,14.24 14.929,13.613 14.929,12.912C14.929,12.212 15.363,11.584 15.995,11.584C16.627,11.584 17.071,12.206 17.061,12.897C17.061,12.902 17.061,12.907 17.061,12.912C17.061,13.613 16.631,14.24 15.995,14.24Z" style="fill:white;"/>
    </g>
</svg>
