<?xml version="1.0" encoding="UTF-8" standalone="no"?>
<!DOCTYPE svg PUBLIC "-//W3C//DTD SVG 1.1//EN" "http://www.w3.org/Graphics/SVG/1.1/DTD/svg11.dtd">
<svg width="100%" height="100%" viewBox="0 0 24 24" version="1.1" xmlns="http://www.w3.org/2000/svg" xmlns:xlink="http://www.w3.org/1999/xlink" xml:space="preserve" xmlns:serif="http://www.serif.com/" style="fill-rule:evenodd;clip-rule:evenodd;stroke-linejoin:round;stroke-miterlimit:2;">
    <g transform="matrix(0.916667,0,0,0.916667,1,1)">
        <path d="M12,0C5.417,0 -0,5.417 0,12C0,18.583 5.417,24 12,24C18.583,24 24,18.583 24,12C24,5.417 18.583,0 12,0ZM17.01,4.744C17.698,4.744 18.26,5.305 18.26,5.993C18.253,6.674 17.691,7.23 17.01,7.23C16.35,7.23 15.799,6.708 15.762,6.049L13.165,5.502L12.365,9.249C14.189,9.319 15.845,9.881 17.039,10.737C17.347,10.428 17.769,10.246 18.246,10.246C19.214,10.246 20,11.032 20,12C20,12.716 19.565,13.333 18.99,13.614C19.019,13.786 19.033,13.96 19.032,14.134C19.032,16.828 15.902,19.004 12.028,19.004C8.154,19.004 5.024,16.828 5.024,14.134C5.024,13.951 5.039,13.768 5.067,13.6C4.436,13.32 4.027,12.691 4.028,12C4.028,11.032 4.814,10.246 5.782,10.246C6.245,10.246 6.68,10.442 6.989,10.736C8.196,9.853 9.867,9.306 11.733,9.249L12.618,5.067C12.639,4.987 12.689,4.916 12.758,4.87C12.83,4.828 12.914,4.813 12.996,4.828L15.902,5.445C16.102,5.016 16.536,4.741 17.01,4.744ZM9.25,12C8.561,12 8,12.562 8,13.25C8,13.937 8.561,14.498 9.25,14.498C9.937,14.498 10.498,13.937 10.498,13.249C10.498,12.561 9.937,12 9.249,12L9.25,12ZM14.75,12C14.063,12 13.502,12.561 13.502,13.25C13.502,13.937 14.063,14.498 14.751,14.498C15.439,14.498 16,13.937 16,13.249C16,12.562 15.438,12 14.75,12ZM9.284,15.99C9.198,15.99 9.115,16.023 9.053,16.084C8.927,16.212 8.927,16.419 9.053,16.547C9.895,17.389 11.537,17.46 12.014,17.46C12.491,17.46 14.119,17.404 14.975,16.547C15.095,16.421 15.107,16.224 15.004,16.084C14.876,15.958 14.668,15.958 14.54,16.084C13.993,16.617 12.856,16.814 12.028,16.814C11.2,16.814 10.049,16.618 9.516,16.084C9.454,16.023 9.371,15.988 9.284,15.989L9.284,15.99Z" style="fill-rule:nonzero;"/>
        <path d="M12,-1.091C4.819,-1.091 -1.091,4.819 -1.091,12C-1.091,19.181 4.819,25.091 12,25.091C19.181,25.091 25.091,19.181 25.091,12C25.091,4.819 19.181,-1.091 12,-1.091L12,-1.091ZM12,0C5.417,0 -0,5.417 0,12C0,18.583 5.417,24 12,24C18.583,24 24,18.583 24,12C24,5.417 18.583,0 12,0ZM17.01,4.744C17.698,4.744 18.26,5.305 18.26,5.993C18.253,6.674 17.691,7.23 17.01,7.23C16.35,7.23 15.799,6.708 15.762,6.049L13.165,5.502L12.365,9.249C14.189,9.319 15.845,9.881 17.039,10.737C17.347,10.428 17.769,10.246 18.246,10.246C19.214,10.246 20,11.032 20,12C20,12.716 19.565,13.333 18.99,13.614C19.019,13.786 19.033,13.96 19.032,14.134C19.032,16.828 15.902,19.004 12.028,19.004C8.154,19.004 5.024,16.828 5.024,14.134C5.024,13.951 5.039,13.768 5.067,13.6C4.436,13.32 4.027,12.691 4.028,12C4.028,11.032 4.814,10.246 5.782,10.246C6.245,10.246 6.68,10.442 6.989,10.736C8.196,9.853 9.867,9.306 11.733,9.249L12.618,5.067C12.639,4.987 12.689,4.916 12.758,4.87C12.83,4.828 12.914,4.813 12.996,4.828L15.902,5.445C16.102,5.016 16.536,4.741 17.01,4.744ZM9.284,15.99C9.198,15.99 9.115,16.023 9.053,16.084C8.927,16.212 8.927,16.419 9.053,16.547C9.895,17.389 11.537,17.46 12.014,17.46C12.491,17.46 14.119,17.404 14.975,16.547C15.095,16.421 15.107,16.224 15.004,16.084C14.876,15.958 14.668,15.958 14.54,16.084C13.993,16.617 12.856,16.814 12.028,16.814C11.2,16.814 10.049,16.618 9.516,16.084C9.454,16.023 9.371,15.988 9.284,15.989L9.284,15.99ZM9.283,17.08C9.248,17.036 8.193,15.736 8.193,15.989C8.193,16.563 8.559,16.838 8.867,16.968C8.828,16.935 8.791,16.902 8.756,16.867C8.81,16.919 8.871,16.962 8.937,16.996C9.121,17.063 9.27,17.079 9.283,17.08ZM16.036,16.894C16.37,16.695 16.67,16.469 16.931,16.221C17.55,15.633 17.941,14.92 17.941,14.134L17.914,13.793C17.835,13.317 18.078,12.846 18.511,12.634C18.737,12.523 18.909,12.281 18.909,12C18.909,11.634 18.612,11.337 18.246,11.337C18.075,11.337 17.922,11.397 17.812,11.507C17.454,11.866 16.9,11.929 16.473,11.67C16.857,12.087 17.091,12.642 17.091,13.249C17.091,14.161 16.565,14.953 15.801,15.339C15.83,15.37 15.857,15.402 15.882,15.437C16.199,15.867 16.246,16.427 16.036,16.894ZM7.498,11.701C7.09,11.917 6.58,11.853 6.237,11.526C6.12,11.415 5.957,11.337 5.782,11.337C5.416,11.337 5.119,11.634 5.119,12C5.119,12 5.119,12.001 5.119,12.001C5.119,12.261 5.272,12.498 5.509,12.603C5.964,12.805 6.225,13.289 6.143,13.779C6.124,13.891 6.115,14.012 6.115,14.134C6.115,14.92 6.506,15.633 7.125,16.221C7.376,16.46 7.664,16.678 7.982,16.872C7.772,16.373 7.857,15.776 8.238,15.359C7.453,14.98 6.909,14.176 6.909,13.25C6.909,12.657 7.132,12.114 7.498,11.701ZM12.05,10.293C11.959,10.32 11.864,10.336 11.766,10.339C10.691,10.372 9.687,10.585 8.827,10.948L9.25,10.909C10.539,10.91 11.589,11.96 11.589,13.249C11.589,14.157 11.068,14.946 10.31,15.333C10.457,15.466 10.69,15.531 10.929,15.592C11.297,15.685 11.695,15.723 12.028,15.723C12.36,15.723 12.755,15.685 13.121,15.592C13.35,15.533 13.574,15.467 13.724,15.35C12.947,14.969 12.411,14.17 12.411,13.25C12.411,11.959 13.463,10.909 14.75,10.909C14.898,10.909 15.043,10.923 15.184,10.95C14.34,10.596 13.362,10.379 12.323,10.339C12.229,10.336 12.137,10.32 12.05,10.293ZM9.25,12C8.561,12 8,12.562 8,13.25C8,13.937 8.561,14.498 9.25,14.498C9.937,14.498 10.498,13.937 10.498,13.249C10.498,12.561 9.937,12 9.25,12L9.25,12L9.249,12L9.25,12ZM14.75,12C14.063,12 13.502,12.561 13.502,13.25C13.502,13.937 14.063,14.498 14.751,14.498C15.439,14.498 16,13.937 16,13.249C16,12.562 15.438,12 14.75,12ZM16.851,5.983C16.865,5.958 16.878,5.932 16.891,5.906C16.911,5.862 16.955,5.835 17.003,5.835C17.005,5.835 17.008,5.835 17.01,5.835C17.094,5.835 17.164,5.9 17.169,5.983C17.165,6.071 17.095,6.139 17.01,6.139C16.926,6.139 16.856,6.072 16.851,5.988L16.851,5.983Z" style="fill:white;"/>
    </g>
</svg>
