<?xml version="1.0" encoding="UTF-8" standalone="no"?>
<!DOCTYPE svg PUBLIC "-//W3C//DTD SVG 1.1//EN" "http://www.w3.org/Graphics/SVG/1.1/DTD/svg11.dtd">
<svg width="100%" height="100%" viewBox="0 0 24 24" version="1.1" xmlns="http://www.w3.org/2000/svg" xmlns:xlink="http://www.w3.org/1999/xlink" xml:space="preserve" xmlns:serif="http://www.serif.com/" style="fill-rule:evenodd;clip-rule:evenodd;stroke-linejoin:round;stroke-miterlimit:2;">
    <g transform="matrix(1.05556,0,0,1.05556,-0.666667,-1.72222)">
        <circle cx="12" cy="13" r="9" style="fill:white;"/>
    </g>
    <path d="M12,0C5.417,0 -0,5.417 0,12C0,18.583 5.417,24 12,24C18.583,24 24,18.583 24,12C24,5.417 18.583,0 12,0ZM17.01,4.744C17.698,4.744 18.26,5.305 18.26,5.993C18.253,6.674 17.691,7.23 17.01,7.23C16.35,7.23 15.799,6.708 15.762,6.049L13.165,5.502L12.365,9.249C14.189,9.319 15.845,9.881 17.039,10.737C17.347,10.428 17.769,10.246 18.246,10.246C19.214,10.246 20,11.032 20,12C20,12.716 19.565,13.333 18.99,13.614C19.019,13.786 19.033,13.96 19.032,14.134C19.032,16.828 15.902,19.004 12.028,19.004C8.154,19.004 5.024,16.828 5.024,14.134C5.024,13.951 5.039,13.768 5.067,13.6C4.436,13.32 4.027,12.691 4.028,12C4.028,11.032 4.814,10.246 5.782,10.246C6.245,10.246 6.68,10.442 6.989,10.736C8.196,9.853 9.867,9.306 11.733,9.249L12.618,5.067C12.639,4.987 12.689,4.916 12.758,4.87C12.83,4.828 12.914,4.813 12.996,4.828L15.902,5.445C16.102,5.016 16.536,4.741 17.01,4.744ZM9.25,12C8.561,12 8,12.562 8,13.25C8,13.937 8.561,14.498 9.25,14.498C9.937,14.498 10.498,13.937 10.498,13.249C10.498,12.561 9.937,12 9.249,12L9.25,12ZM14.75,12C14.063,12 13.502,12.561 13.502,13.25C13.502,13.937 14.063,14.498 14.751,14.498C15.439,14.498 16,13.937 16,13.249C16,12.562 15.438,12 14.75,12ZM9.284,15.99C9.198,15.99 9.115,16.023 9.053,16.084C8.927,16.212 8.927,16.419 9.053,16.547C9.895,17.389 11.537,17.46 12.014,17.46C12.491,17.46 14.119,17.404 14.975,16.547C15.095,16.421 15.107,16.224 15.004,16.084C14.876,15.958 14.668,15.958 14.54,16.084C13.993,16.617 12.856,16.814 12.028,16.814C11.2,16.814 10.049,16.618 9.516,16.084C9.454,16.023 9.371,15.988 9.284,15.989L9.284,15.99Z" style="fill:rgb(255,69,0);fill-rule:nonzero;"/>
</svg>
