<?xml version="1.0" encoding="UTF-8" standalone="no"?>
<!DOCTYPE svg PUBLIC "-//W3C//DTD SVG 1.1//EN" "http://www.w3.org/Graphics/SVG/1.1/DTD/svg11.dtd">
<svg width="100%" height="100%" viewBox="0 0 36 36" version="1.1" xmlns="http://www.w3.org/2000/svg" xmlns:xlink="http://www.w3.org/1999/xlink" xml:space="preserve" xmlns:serif="http://www.serif.com/" style="fill-rule:evenodd;clip-rule:evenodd;stroke-linejoin:round;stroke-miterlimit:2;">
    <g transform="matrix(1.375,0,0,1.375,1.5,1.50034)">
        <path d="M23.953,4.57C23.054,4.966 22.103,5.227 21.128,5.345C22.154,4.728 22.923,3.761 23.291,2.622C22.34,3.177 21.286,3.581 20.164,3.806C19.234,2.812 17.932,2.247 16.57,2.247C13.871,2.247 11.65,4.467 11.65,7.167C11.65,7.544 11.694,7.92 11.78,8.288C7.69,8.095 4.067,6.13 1.64,3.162C1.199,3.912 0.969,4.767 0.974,5.637C0.974,7.347 1.844,8.85 3.162,9.733C2.381,9.708 1.617,9.497 0.934,9.117L0.934,9.177C0.933,11.511 2.592,13.541 4.88,14.004C4.158,14.197 3.402,14.226 2.668,14.089C3.314,16.089 5.171,17.467 7.272,17.506C5.532,18.872 3.382,19.613 1.17,19.611C0.78,19.611 0.391,19.588 0,19.544C2.255,20.988 4.879,21.755 7.557,21.753C16.61,21.753 21.555,14.257 21.555,7.768C21.555,7.558 21.555,7.348 21.54,7.138C22.506,6.443 23.339,5.58 24,4.59L23.953,4.57Z" style="fill-rule:nonzero;"/>
        <path d="M1.027,9.167C0.308,8.178 -0.116,6.96 -0.117,5.641C-0.123,4.575 0.159,3.527 0.7,2.609C0.881,2.301 1.201,2.102 1.556,2.074C1.912,2.047 2.259,2.195 2.485,2.471C4.467,4.896 7.315,6.595 10.561,7.075C10.61,3.819 13.304,1.156 16.57,1.156C18.016,1.156 19.407,1.677 20.492,2.611C21.292,2.399 22.047,2.085 22.741,1.68C23.132,1.452 23.623,1.489 23.975,1.772C24.327,2.056 24.468,2.528 24.329,2.958C24.27,3.141 24.202,3.321 24.126,3.496C24.199,3.503 24.284,3.525 24.381,3.567C24.686,3.696 24.102,5.393 24.011,5.649L24.092,5.632L24.907,5.196C24.283,6.131 23.52,6.964 22.646,7.667C22.646,7.701 22.646,7.734 22.646,7.768C22.646,14.763 17.316,22.844 7.557,22.844C4.671,22.846 1.843,22.019 -0.588,20.463C-1.015,20.189 -1.198,19.657 -1.028,19.179C-0.859,18.701 -0.382,18.403 0.122,18.46C0.472,18.499 0.821,18.52 1.17,18.52C1.17,18.52 1.171,18.52 1.171,18.52C2.319,18.521 3.448,18.297 4.496,17.869C3.164,17.146 2.116,15.929 1.63,14.425C1.534,14.127 1.571,13.806 1.724,13.542C0.558,12.433 -0.158,10.871 -0.157,9.177L0.853,10.187L-0.157,9.176L-0.157,9.119L0.934,10.208L0.981,10.12L1.014,10.06C1.371,12.008 2.887,13.6 4.88,14.004C4.158,14.197 3.402,14.226 2.668,14.089C3.314,16.089 5.171,17.467 7.272,17.506C5.532,18.872 3.382,19.613 1.17,19.611C0.78,19.611 0.391,19.588 0,19.544C2.255,20.988 4.879,21.755 7.557,21.753C16.61,21.753 21.555,14.257 21.555,7.768C21.555,7.558 21.555,7.348 21.54,7.138C22.35,6.555 23.067,5.854 23.667,5.058L23.909,5.511C23.871,5.375 23.815,5.161 23.768,4.922C23.848,4.813 23.925,4.702 24,4.59L23.953,4.57C23.877,4.603 23.801,4.636 23.724,4.667C23.707,4.553 23.694,4.438 23.687,4.327C23.614,4.442 23.537,4.555 23.457,4.665L23.504,4.754C22.74,5.048 21.942,5.246 21.128,5.345C22.154,4.728 22.923,3.761 23.291,2.622C22.34,3.177 21.286,3.581 20.164,3.806C19.234,2.812 17.932,2.247 16.57,2.247C13.871,2.247 11.65,4.467 11.65,7.167C11.65,7.544 11.694,7.92 11.78,8.288C7.69,8.095 4.067,6.13 1.64,3.162C1.199,3.912 0.969,4.767 0.974,5.637C0.974,7.347 1.844,8.85 3.162,9.733C2.416,9.709 1.686,9.516 1.027,9.167Z" style="fill:white;"/>
    </g>
</svg>
